Patient4_TMGait_0pt3_03_left_06_EMG.mot
version=1
nRows=26
nColumns=33
inDegrees=no
endheader
time	1LAddLong	2LGlutMax	3LGlutMed	4LIliopsoas	5LSemiMemb	6LBicFemLong	7LRecFem	8LVastMed	9LVastLat	10LGasMed	11LTibAnt	12lTibPost	13LPeroneusLong	14LSol	15LExtDigLong	16LFlexDigLong	17RAddLong	18RGlutMax	19RGlutMed	20RIliopsoas	21RSemiMemb	22RBicFemLong	23RRecFem	24RVastMed	25RVastLat	26RGasMed	27RTibAnt	28RTibPost	29RPeroneusLong	30RSol	31RExtDigLong	32RFlexDigLong
12.31	0.014648	0.025787	-0.021362	0.031128	-0.008392	-0.014038	-0.038605	0.011597	-0.009766	0.016022	-0.015259	-0.020905	0.016479	0.000458	0.12497	0.004272	0.029144	-0.1712	-0.1294	-0.040131	0.10468	-0.051422	0.22812	0.064087	0.43533	0.010376	-0.20142	0.009766	0.050812	0.16678	-0.002747	-0.008392
12.311	0.015869	0.053711	-0.025635	0.005646	-0.014954	-0.00412	-0.046997	0.012512	-0.006409	0.014801	0.027466	-0.001984	0.003815	-0.000153	0.035248	0.001831	0.046082	-0.053711	-0.098419	-0.011749	0.11917	-0.09201	0.033417	-0.003357	0.64423	-0.004578	-0.35278	0.007477	0.036621	0.20767	-0.00351	-0.010681
12.312	0.017395	0.082397	-0.046844	-0.043335	-0.023499	0.009918	-0.031891	0.015106	-0.02121	0.007629	0.031738	-0.022736	0.006714	0.009155	0.066071	-0.004883	0.036469	-0.09552	-0.23544	0.083313	0.29419	-0.049133	0.021973	0.59006	0.61157	-0.00061	-0.168	0.002136	0.021667	0.19699	-0.007172	-0.010834
12.313	0.028381	0.028381	-0.057831	-0.004578	-0.031738	-0.028229	-0.013123	0.008087	-0.024872	-0.007935	0.07019	-0.008087	-0.009918	-0.010071	0.345	0.002747	-0.043945	-0.215	-0.24551	0.066986	0.33569	0.06424	-0.1445	1.4743	0.31815	-0.003357	-0.002594	0.007477	0.02243	0.050507	-0.000916	-0.012817
12.314	0.013733	0.050049	-0.027313	0.011902	-0.033875	-0.04364	0.00473	0.015106	-0.028381	-0.016174	0.058289	-0.013733	-0.011444	0.011444	-0.2269	0.014954	-0.10162	-0.25009	-0.29251	0.022888	0.24246	0.026703	-0.37186	1.207	0.32623	-0.008545	0.062256	0.007019	-0.046234	0.024872	-0.003052	-0.015717
12.315	0.015717	0.018158	0.004578	0.043335	-0.021973	-0.027924	-0.002289	0.019684	-0.028076	-0.032349	-0.056305	0.002594	0.012817	-0.020447	-0.21301	0.002289	-0.079498	-0.28259	-0.3215	-0.017548	0.16998	-0.003967	-0.31799	0.57724	0.002441	-0.007629	0.056	0.004425	-0.074921	0.043793	-0.000916	-0.012512
12.316	0.001221	0.024872	0.013275	0.03418	-0.026245	-0.01236	0.004578	0.009308	-0.014954	-0.041504	-0.07431	-0.016022	0.037231	-0.031738	-0.10376	0.004272	-0.082245	-0.2655	-0.34927	-0.075684	0.12054	0.001678	-0.23025	-0.023499	-0.36636	-0.007935	0.096283	0.006561	-0.05188	0.006866	0.000305	-0.008087
12.317	-0.000305	0.011902	-0.016785	0.012512	-0.004883	-0.010529	0.002747	0.028076	0.006256	-0.062561	-0.049133	-0.013123	0.031586	-0.042572	-0.039978	-0.003967	-0.11383	-0.25803	-0.43472	-0.10132	0.11658	-0.030823	-0.43884	-0.32593	-0.09613	-0.010071	0.07843	0.003662	-0.066833	0.00061	-0.003967	-0.011139
12.318	0.000763	0.018311	-0.015259	0.016632	0.020447	-0.032806	-0.002747	0.014343	0.009766	-0.034943	-0.016937	-0.022278	-0.012054	-0.035706	-0.03418	-0.000458	-0.10834	-0.11475	-0.6369	-0.093689	0.098572	-0.032501	-0.29129	-0.41596	0.22308	-0.009003	0.090637	0.005341	-0.077667	-0.036163	-0.003052	-0.014343
12.319	0.005341	-0.020752	-0.05188	0.004272	0.008392	-0.029907	-0.011902	0.013275	0.024719	-0.025024	-0.001678	-0.019684	-0.043793	-0.025635	-0.012512	0.002899	-0.056458	-0.027466	-0.57663	-0.023041	0.069885	-0.069427	0.058899	-0.36301	0.22568	-0.003815	-0.13092	0.009918	0.031281	-0.079803	0.001221	-0.010223
12.32	0.009003	-0.023651	-0.10773	-0.011292	0.009003	-0.037994	0.004272	0.014954	0.020905	-0.016785	-0.011444	-0.033875	-0.031891	-0.024109	0.016174	-0.003662	-0.039978	-0.035095	-0.0383	0.022736	0.072937	-0.065918	0.15442	-0.32227	0.25955	-0.002899	-0.29968	-0.004883	0.1503	-0.18539	-0.001526	-0.009918
12.321	0.020752	0.017395	-0.11658	-0.015717	0.02182	-0.0354	-0.006561	0.007629	0.025024	-0.002594	0.001526	-0.024567	-0.040741	-0.029449	0.027924	-0.003204	-0.01297	-0.003357	0.87921	-0.023804	0.12863	-0.03479	0.016632	-0.20599	0.15823	-0.008698	-0.25116	0.000763	0.075226	-0.32303	-0.001221	-0.020905
12.322	0.017395	0.00412	0.009155	-0.013885	0.003662	-0.027924	-0.012512	0.016937	0.030823	0.033264	0.06134	-0.033264	-0.056915	-0.014648	0.037384	-0.004272	-0.037842	0.010071	0.92056	0.083008	0.14938	-0.002136	-0.22568	0.11124	-0.168	0.003357	-0.23773	-0.000763	0.10147	-0.35751	-0.000458	-0.011597
12.323	0.019073	-0.02121	0.052032	-0.003052	0.002441	-0.045471	-0.024719	0.014954	0.045471	0.035858	-0.015411	-0.033264	-0.00412	-0.014191	0.050049	-0.000153	-0.065765	0.040894	0.58166	0.010986	-0.17929	0.011292	-0.40283	0.12558	-0.41458	0.004883	0.31876	0.003204	0.04715	-0.23789	-0.00412	-0.011292
12.324	0.016937	-0.0354	0.032043	0.003357	0.004578	-0.031433	-0.00946	0.001221	0.037079	0.073242	-0.028992	-0.039215	-0.006104	-0.007324	0.0737	0.00351	-0.068207	0.10696	0.28366	-0.20264	-0.15427	0.029755	-0.089417	-0.06073	-0.75546	-0.000153	0.59967	0.000916	-0.11978	-0.20569	-0.000916	-0.01236
12.325	0.01358	-0.037384	0.041504	-0.000305	0.007324	-0.038757	-0.017853	0.013733	0.03418	0.068054	0.04425	-0.037384	0.011139	-0.019531	0.11459	0.007172	-0.032196	0.042114	-0.23438	-0.23117	0.007629	-0.080261	0.31097	-0.089722	-0.83679	-0.001678	0.59631	-0.001373	-0.14267	-0.30762	-0.005798	-0.007935
12.326	0.005493	-0.044098	0.021515	0.001068	0.003662	-0.050964	-0.031281	0.015869	0.032959	0.040894	0.015564	-0.046234	0.02182	0.003052	0.14358	0.002899	-0.009918	0.035858	-0.54993	-0.14084	-0.041504	-0.14725	0.44144	0.038605	-0.64163	0.001831	0.035553	0.003967	-0.10193	-0.18936	-0.00885	-0.008698
12.327	0.005646	-0.042267	0.030212	0.001373	-0.004578	-0.020905	-0.020294	0.002899	0.024719	0.01358	0.02655	-0.029449	0.005493	0.020142	0.10864	0.007629	0.012817	0.10864	-0.81696	0.11688	-0.1651	-0.13397	0.3746	-0.005646	-0.35233	-0.012207	0.029602	0.000305	-0.11551	0.14221	-0.003052	-0.002289
12.328	0.005188	-0.022583	0.033722	-0.007629	-0.005188	-0.049591	-0.024872	0.007477	0.017242	-0.000153	0.037537	-0.029602	0.013428	-0.013428	-0.0177	0.007782	0.002289	0.13077	-0.56427	0.30823	-0.23422	-0.02121	0.19531	-0.22812	-0.25177	-0.00885	-0.10681	-0.009613	-0.1178	0.12024	-0.00351	-0.006714
12.329	0.002747	-0.028076	0.04425	0.025024	0.000763	-0.011902	-0.019379	-0.001221	0.014038	-0.036011	0.015106	-0.03891	-0.011749	-0.036926	-0.10773	-0.019531	-0.023651	0.12711	0.13138	0.11169	0.000458	0.10208	0.022278	-0.26321	-0.24353	0.000305	-0.00946	-0.013733	-0.13916	-0.078583	-0.003357	-0.01236
12.33	-0.003204	-0.028229	0.012207	0.015717	-0.00946	0.013733	0.003052	0.011292	0.008087	-0.10941	0.002136	-0.042725	-0.007172	0.005493	-0.13855	-0.022888	-0.005493	0.086823	-0.093536	-0.037842	0.006866	0.085907	-0.19806	-0.16312	-0.17654	0.000305	-0.10864	-0.006866	-0.007477	-0.33234	-0.005341	-0.014343
12.331	-0.001678	-0.041351	-0.000153	0.0177	-0.005035	0.042419	0.006714	0.008087	-0.001221	-0.048218	0.003204	-0.022888	0.019379	0.002289	-0.089264	-0.010986	0.053101	0.11276	-0.27725	-0.030823	-0.20737	0.009155	-0.098114	-0.087128	-0.1236	-0.003052	-0.12146	-0.005646	-0.15961	-0.76843	-0.003967	-0.020447
12.332	-0.008545	-0.02121	-0.028229	0.001526	-0.013885	0.035095	0.007477	0.012817	0.003052	-0.045471	0.004578	-0.038605	0.007629	-0.007324	-0.014038	-0.013275	0.061493	0.11597	0.33035	0.083466	0.084534	-0.065765	0.041962	0.32074	-0.10696	-0.002594	0.18066	-0.048065	-0.11963	-0.64514	-0.003052	-0.00946
12.333	-0.009308	-0.053253	-0.034485	0.006561	-0.027161	0.025635	0.019684	0.016937	0.011444	0.046997	-0.002747	-0.031891	-0.001678	-0.005341	0.028687	0.001221	0.069733	0.14328	0.070343	0.29098	0.31265	-0.021515	0.051575	0.15762	0.1181	-0.000153	0.14648	-0.11139	-0.099182	-0.37201	-0.000305	-0.017548
12.334	-0.002289	-0.026398	-0.005798	-0.011139	-0.034637	-0.009613	-0.016785	0.011749	0.006256	0.067596	0.030365	-0.033569	-0.028839	-0.032959	0.027618	-0.004578	0.076141	0.14877	-0.95962	0.33737	0.41794	0.009918	0.059662	-0.17624	0.25421	0.020142	0.000916	-0.056305	0.049896	0.45746	-0.001221	-0.008087
12.335	-0.005493	-0.018311	-0.00473	0.019073	-0.032349	-0.027008	0.000153	0.010376	0.019836	-0.02121	-0.045013	-0.02533	0.032959	-0.010681	-0.019226	0.005341	0.004425	0.12848	-0.25375	0.22781	-0.11627	0.000305	-0.28793	-0.22446	0.30441	0.028992	-0.014343	0.014801	-0.056152	0.8577	-0.00061	-0.006409
